# xmcd
#
# Track frame offsets: 
#        183
#        30893
#        58368
#        63770
#        92428
#        123598
#        162765
#        176330
#        198493
#        210395
#        217110
#        234030
#        242828
#
# Disc length: 4065 seconds
#
# Revision: 3
# Processed by: cddbd v1.5.2PL0 Copyright (c) Steve Scherf et al.
# Submitted via: ExactAudioCopy v0.99pb5
#
DISCID=a70fdf0d
DTITLE=Adolf Busch, Rudolf Serkin - Beethoven - Violin Sonatas Nos. 5 
DTITLE=& 7 - Bach - Partita No. 2
DYEAR=1929
DGENRE=Chamber Music
TTITLE0=01. Beethoven - Sonata for Violin and Piano No.5 in F, Op.24 -
TTITLE0="Spring" - 1. Allegro
TTITLE1=02. Beethoven - Sonata for Violin and Piano No.5 in F, Op.24 -
TTITLE1="Spring" - 2. Adagio molto espressivo
TTITLE2=03. Beethoven - Sonata for Violin and Piano No.5 in F, Op.24 -
TTITLE2="Spring" - 3. Scherzo (Allegro molto)
TTITLE3=04. Beethoven - Sonata for Violin and Piano No.5 in F, Op.24 -
TTITLE3="Spring" - 4. Rondo (Allegro ma non troppo)
TTITLE4=05. Beethoven - Sonata for Violin and Piano No.7 in C minor, O
TTITLE4=p.30 No.2 - 1. Allegro con brio
TTITLE5=06. Beethoven - Sonata for Violin and Piano No.7 in C minor, O
TTITLE5=p.30 No.2 - 2. Adagio cantabile
TTITLE6=07. Beethoven - Sonata for Violin and Piano No.7 in C minor, O
TTITLE6=p.30 No.2 - 3. Scherzo (Allegro)
TTITLE7=08. Beethoven - Sonata for Violin and Piano No.7 in C minor, O
TTITLE7=p.30 No.2 - 4. Finale (Allegro)
TTITLE8=09. J. S. Bach - Partita No. 2 in D minor BWV 1004 - 1. Allema
TTITLE8=nde
TTITLE9=10. J. S. Bach - Partita No. 2 in D minor BWV 1004 - 2. Couran
TTITLE9=te
TTITLE10=11. J. S. Bach - Partita No. 2 in D minor BWV 1004 - 3. Sarab
TTITLE10=ande
TTITLE11=12. J. S. Bach - Partita No. 2 in D minor BWV 1004 - 4. Gigue
TTITLE12=13. J. S. Bach - Partita No. 2 in D minor BWV 1004 - 5. Chaco
TTITLE12=nne
EXTD=YEAR: 1929
EXTT0=
EXTT1=
EXTT2=
EXTT3=
EXTT4=
EXTT5=
EXTT6=
EXTT7=
EXTT8=
EXTT9=
EXTT10=
EXTT11=
EXTT12=
PLAYORDER=
